<svg viewBox="0 0 261 368" xmlns="http://www.w3.org/2000/svg" xml:space="preserve" style="fill-rule:evenodd;clip-rule:evenodd;stroke-linejoin:round;stroke-miterlimit:2"><path d="m2582.884 142.765-28.485 49.339a50 50 0 0 1-43.302 25h-113.942a50 50 0 0 1-43.301-25l-56.971-98.677a50 50 0 0 1 0-50l35.511-61.508a50 50 0 0 1 43.302-25h39.65a9.999 9.999 0 0 1 8.66 15l-89.977 155.846a9.999 9.999 0 0 0 8.66 15h94.117a10 10 0 0 0 8.66-15l-19.825-34.338a50 50 0 0 1 0-50l35.511-61.508a50 50 0 0 1 43.301-25h28.104a50 50 0 0 1 43.301 25l35.512 61.508a50 50 0 0 1 0 50l-19.826 34.338a10.002 10.002 0 0 0 8.661 15h47.018c5.522 0 9.999 4.477 9.999 10v54.339c0 5.523-4.477 10-9.999 10h-54.339c-5.523 0-10-4.477-10-10zm-55.719-96.507a9.999 9.999 0 0 0-17.32 0l-47.058 81.507a9.999 9.999 0 0 0 8.66 15h94.117a10 10 0 0 0 8.66-15z" style="fill:#9666e3" transform="rotate(90 1253.644 -1036.54)"/></svg>